<svg width="16" height="21" viewBox="0 0 16 21" fill="none" xmlns="http://www.w3.org/2000/svg">
<path fill-rule="evenodd" clip-rule="evenodd" d="M2.30448 9.46927C2.57977 8.80467 3.02642 8.23269 3.59105 7.80672L3.60804 7.79397C3.62487 7.78141 3.64181 7.76898 3.65885 7.75668L3.65946 7.75176C3.86822 7.56848 4 7.29963 4 7C4 6.44772 3.55228 6 3 6C2.78517 6 2.58617 6.06774 2.42318 6.18303L2.42276 6.18294C1.35335 6.9773 0.560319 8.11894 0.204445 9.44709C0 10.2101 0 11.1401 0 13C0 14.8599 0 15.7899 0.204445 16.5529C0.759248 18.6235 2.37653 20.2408 4.44709 20.7956C5.21008 21 6.14006 21 8 21C9.85994 21 10.7899 21 11.5529 20.7956C13.6235 20.2408 15.2408 18.6235 15.7956 16.5529C16 15.7899 16 14.8599 16 13C16 11.1401 16 10.2101 15.7956 9.44709C15.437 8.10893 14.6347 6.9601 13.553 6.16503L13.551 6.16535C13.393 6.06085 13.2036 6 13 6C12.6849 6 12.4038 6.14574 12.2205 6.37349L12.1731 6.38091L12.1791 6.42874C12.0662 6.59068 12 6.78761 12 7C12 7.30201 12.1339 7.57276 12.3455 7.75612L12.3461 7.76023C12.3614 7.77137 12.3767 7.78262 12.392 7.79397C12.3976 7.79829 12.4033 7.80255 12.409 7.80675C12.9736 8.23271 13.4202 8.80468 13.6955 9.46927C14 10.2044 14 11.1362 14 13C14 14.8638 14 15.7956 13.6955 16.5307C13.2895 17.5108 12.5108 18.2895 11.5307 18.6955C10.7956 19 9.86377 19 8 19C6.13623 19 5.20435 19 4.46927 18.6955C3.48915 18.2895 2.71046 17.5108 2.30448 16.5307C2 15.7956 2 14.8638 2 13C2 11.1362 2 10.2044 2.30448 9.46927Z" fill="black"/>
<path fill-rule="evenodd" clip-rule="evenodd" d="M7 2C7 1.44772 7.44772 1 8 1C8.55228 1 9 1.44772 9 2V12C9 12.5523 8.55228 13 8 13C7.44772 13 7 12.5523 7 12V2Z" fill="black"/>
<path fill-rule="evenodd" clip-rule="evenodd" d="M7.29289 1.29292C7.68342 0.902398 8.31658 0.902398 8.70711 1.29292C9.09763 1.68345 9.09763 2.31661 8.70711 2.70714L5.87868 5.53556C5.48816 5.92609 4.85499 5.92609 4.46447 5.53556C4.07394 5.14504 4.07394 4.51187 4.46447 4.12135L7.29289 1.29292Z" fill="black"/>
<path fill-rule="evenodd" clip-rule="evenodd" d="M7.29292 2.70711C6.9024 2.31658 6.9024 1.68342 7.29292 1.29289C7.68345 0.902369 8.31661 0.902369 8.70714 1.29289L11.5356 4.12132C11.9261 4.51184 11.9261 5.14501 11.5356 5.53553C11.145 5.92606 10.5119 5.92606 10.1213 5.53553L7.29292 2.70711Z" fill="black"/>
</svg>
