<svg width="11" height="18" viewBox="0 0 11 18" fill="none" xmlns="http://www.w3.org/2000/svg">
<path fill-rule="evenodd" clip-rule="evenodd" d="M1.22188 2.63603C0.831353 2.24551 0.831353 1.61234 1.22188 1.22182C1.6124 0.831294 2.24557 0.831294 2.63609 1.22182L9.70716 8.29289C10.0977 8.68341 10.0977 9.31657 9.70716 9.7071C9.31663 10.0976 8.68347 10.0976 8.29294 9.7071L1.22188 2.63603Z" fill="black"/>
<path fill-rule="evenodd" clip-rule="evenodd" d="M8.29289 8.29289C8.68342 7.90237 9.31658 7.90237 9.70711 8.29289C10.0976 8.68342 10.0976 9.31658 9.70711 9.70711L2.63604 16.7782C2.24551 17.1687 1.61235 17.1687 1.22183 16.7782C0.831301 16.3876 0.831302 15.7545 1.22183 15.364L8.29289 8.29289Z" fill="black"/>
</svg>
