<svg width="1024" height="1024" viewBox="0 0 1024 1024" fill="none" xmlns="http://www.w3.org/2000/svg">
<rect width="1024" height="1024" fill="#ED1D24"/>
<g clip-path="url(#clip0)">
<path d="M1012 311H12V713.473H1012V311Z" fill="#ED1D24"/>
<path d="M858.253 404.792V343.189H686.834L658.643 548.992L630.747 343.19H568.93L575.855 398.105C568.715 384.037 543.406 343.19 487.709 343.19C487.342 343.166 425.808 343.19 425.808 343.19L425.571 643.164L380.514 343.19L299.555 343.143L252.943 653.957L252.967 343.188H175.484L147.551 517.773L120.343 343.19H42.835V681.096H103.871V518.226L131.635 681.092H164.084L191.458 518.226V681.092H309.125L316.265 629.097H363.639L370.755 681.092L486.276 681.163H486.37V681.092H486.442H486.514V571.407L500.676 569.344L529.995 681.163H530.067H589.677H589.747L589.723 681.092H589.829H589.901L551.426 550.035C570.924 535.613 592.939 498.988 587.08 463.951V463.928C587.15 464.402 623.396 681.308 623.396 681.308L694.461 681.092L743.02 374.808V681.093H858.256V620.32H803.556V542.824H858.256V481.126H803.556V404.792H858.253ZM323.455 575.513L340.213 431.052L357.613 575.513H323.455ZM500.874 508.809C496.177 511.087 491.279 512.226 486.511 512.226V403.535C486.594 403.535 486.69 403.513 486.808 403.513C491.588 403.489 527.227 404.959 527.227 457.287C527.227 484.66 515.106 501.907 500.874 508.809ZM981.234 620.273V681.045H868.82V343.143H929.346V620.273H981.234Z" fill="white"/>
</g>
<defs>
<clipPath id="clip0">
<rect x="12" y="311" width="1000" height="402.473" fill="white"/>
</clipPath>
</defs>
</svg>
