<svg width="98" height="43" viewBox="0 0 98 43" fill="none" xmlns="http://www.w3.org/2000/svg">
<path fill-rule="evenodd" clip-rule="evenodd" d="M93 36V31.2532H88.4366V10H83V36H93Z" fill="black"/>
<path fill-rule="evenodd" clip-rule="evenodd" d="M82 36L81.9933 31.2564L77.3272 31.2532L77.3215 25.3612L81.9992 25.3753L81.9954 20.4414L77.3157 20.4382L77.3223 14.7432L81.9988 14.75L81.9942 10L72.0093 10.0054L72 35.9832L82 36Z" fill="black"/>
<path fill-rule="evenodd" clip-rule="evenodd" d="M64.9772 25.9409L62.4194 10L57 10.0013L61.8715 36L68.2952 35.9999L73 10.0043H67.5128L64.9772 25.9409Z" fill="black"/>
<path fill-rule="evenodd" clip-rule="evenodd" d="M45 36L50.219 35.992L50.2183 27.458L51.2676 27.4507L53.7758 35.9915L59 35.9967L55.5527 25.7502C55.5527 25.7502 59.3384 24.1159 58.56 17.2378C57.7816 10.3597 50.8467 10 50.8467 10L45.0006 10.007L45 36ZM50.0107 23.0983L50.0091 14.5563C50.0091 14.5563 53.5688 14.3166 53.5688 18.6454C53.5688 22.9741 50.0107 23.0983 50.0107 23.0983Z" fill="black"/>
<path fill-rule="evenodd" clip-rule="evenodd" d="M34.9494 31.815L34.2802 36H29L33.4345 10H40.5608L45 36H39.5989L39.039 31.815H34.9494ZM37.0036 16.8179L35.3832 27.8355H38.624L37.0036 16.8179Z" fill="black"/>
<path fill-rule="evenodd" clip-rule="evenodd" d="M11 35.934V10H17.7664L19.9932 23.642L22.2426 10H29V35.934H23.9161V23.2675L21.3659 35.934H18.6322L16.2679 23.642L16.2538 36L11 35.934Z" fill="black"/>
</svg>
